<svg width="171" height="45" viewBox="0 0 171 45" fill="none" xmlns="http://www.w3.org/2000/svg">
<path d="M6.66452 13.549H12.8414C13.776 13.549 14.5075 13.3816 14.9545 13.0135C15.4015 12.6454 15.686 11.9761 15.7673 11.0055C15.8079 10.8717 15.8486 10.8047 15.8892 10.7713C15.9298 10.7378 16.0111 10.7043 16.0924 10.7043C16.2956 10.7043 16.4175 10.8047 16.4987 11.0055L18.4087 16.3601C18.4493 16.4605 18.4493 16.5609 18.4087 16.6278C18.3681 16.6948 18.3274 16.7617 18.2462 16.7617C18.1649 16.7952 18.0836 16.7617 18.0023 16.7617C17.9211 16.7282 17.8398 16.6948 17.7585 16.5944C17.2709 15.9585 16.7832 15.4565 16.3768 15.1219C15.9705 14.7872 15.5235 14.5195 15.0358 14.3856C14.5482 14.2517 14.0199 14.1848 13.329 14.1848H6.66452V13.549ZM0.162549 2.70597C0.162549 2.60557 0.203187 2.53864 0.284461 2.50517C0.365736 2.4717 0.447011 2.43824 0.60956 2.43824H16.9864C17.3115 2.43824 17.596 2.40477 17.8398 2.30437C18.0836 2.23744 18.2868 2.13704 18.49 2.07011C18.6525 2.00318 18.8151 1.93625 18.8964 1.93625C19.0183 1.93625 19.0995 1.96971 19.1808 2.03665C19.2621 2.10358 19.3027 2.23744 19.384 2.4717L21.0501 7.85973C21.0908 7.9936 21.0908 8.094 21.0501 8.16093C21.0095 8.22786 20.9282 8.26133 20.8469 8.29479C20.7657 8.32826 20.6844 8.29479 20.5625 8.26133C20.4812 8.22786 20.3999 8.16093 20.3187 8.02706C19.6278 7.02308 18.9776 6.18643 18.4087 5.55058C17.8398 4.91472 17.3115 4.41273 16.7832 4.04461C16.2549 3.67648 15.7673 3.44222 15.239 3.30835C14.7107 3.17449 14.1824 3.10756 13.6135 3.10756H7.88364V24.2916C7.88364 24.6262 8.00555 24.8605 8.20874 25.0278C8.41192 25.1951 8.73702 25.2621 9.10276 25.2621H13.8573C14.6701 25.2621 15.4015 25.0947 16.0517 24.7935C16.7426 24.4923 17.4334 23.89 18.2055 22.9864C18.9776 22.0828 19.8716 20.7776 20.8469 19.0374C20.9282 18.937 20.9689 18.8366 21.0501 18.8031C21.1314 18.7697 21.2127 18.7362 21.3346 18.7697C21.4565 18.8031 21.4971 18.8366 21.5378 18.9035C21.5784 18.9705 21.5784 19.1043 21.5378 19.2382L19.5872 25.7975C19.5059 25.9983 19.4653 26.1322 19.384 26.2326C19.3027 26.2995 19.2214 26.3664 19.0995 26.3664C18.9776 26.3664 18.8151 26.333 18.6119 26.2326C18.4087 26.1656 18.1649 26.0653 17.8804 25.9983C17.596 25.9314 17.2302 25.8645 16.8238 25.8645H0.447011C0.325099 25.8645 0.203187 25.831 0.121912 25.7975C0.0406373 25.7306 0 25.6637 0 25.5967C0 25.4294 0.121912 25.329 0.365736 25.2955L1.99123 25.0613C2.27569 25.0278 2.47888 24.9274 2.60079 24.8605C2.7227 24.7601 2.80397 24.6262 2.80397 24.4589V3.84381C2.80397 3.67648 2.7227 3.54262 2.60079 3.44222C2.47888 3.34182 2.27569 3.27489 1.99123 3.24142L0.365736 3.00716C0.121912 2.94023 0 2.83983 0 2.70597H0.162549Z" fill="#54C0CB"/>
<path d="M36.0109 25.9601H34.0507C33.8595 25.9601 33.7161 25.9123 33.5726 25.8166C33.4292 25.721 33.3336 25.5776 33.238 25.3386L26.4013 7.26691C26.2579 6.88444 26.1145 6.59759 25.9711 6.40635C25.8276 6.21512 25.5886 6.07169 25.3496 5.97607L24.4412 5.78484C24.2978 5.73703 24.2021 5.64141 24.1065 5.59361C24.1065 5.59361 24.0109 5.45018 24.0109 5.35456C24.0109 5.21114 24.0587 5.16333 24.1065 5.06771C24.2021 5.0199 24.2978 4.97209 24.3934 4.97209H34.1941C34.481 4.97209 34.5766 5.06771 34.5766 5.30675C34.5766 5.40237 34.481 5.5458 34.481 5.5458C34.481 5.5458 34.3376 5.64141 34.1941 5.68922L33.0945 5.92827C32.3296 6.07169 31.8993 6.31073 31.7559 6.59759C31.6125 6.88444 31.6125 7.26691 31.8037 7.74499L37.3017 22.5657L36.2977 24.0477L42.0348 8.12746C42.2738 7.50595 42.2738 7.02786 42.0826 6.64539C41.8913 6.26293 41.4611 6.02388 40.7439 5.88046L39.5487 5.64141C39.4053 5.59361 39.2619 5.49799 39.2619 5.49799C39.2619 5.49799 39.1662 5.35456 39.1662 5.25895C39.1662 5.11552 39.2141 5.06771 39.2619 4.97209C39.3575 4.92428 39.4531 4.87648 39.5487 4.87648H45.6204C45.7638 4.87648 45.9073 4.97209 45.9073 4.97209C45.9073 4.97209 46.0029 5.11552 46.0029 5.25895C46.0029 5.35456 45.9551 5.40237 45.9073 5.49799C45.9073 5.49799 45.716 5.59361 45.5726 5.68922L44.7598 5.88046C44.3774 5.97607 44.0427 6.21512 43.7559 6.50197C43.469 6.83663 43.23 7.31472 42.9909 8.03185L36.6802 25.3386C36.5846 25.5298 36.489 25.721 36.3455 25.7688C36.2021 25.8645 36.0587 25.9123 35.8674 25.9123L36.0109 25.9601Z" fill="#54C0CB"/>
<path d="M66.9622 13.1952C66.9622 13.482 66.8666 13.7211 66.7231 13.9123C66.5319 14.0557 66.2929 14.1513 65.9582 14.1513H51.6156V13.4342H61.3208C61.7032 13.4342 61.8945 13.243 61.8945 12.8127C61.8945 10.3267 61.512 8.46212 60.6993 7.2191C59.9343 5.97608 58.9303 5.35456 57.7351 5.35456C56.7311 5.35456 55.8706 5.68922 55.1535 6.31074C54.4363 6.93225 53.8626 7.88842 53.4802 9.13144C53.0977 10.3745 52.8586 11.9043 52.8586 13.7211C52.8586 16.8764 53.528 19.3147 54.9144 20.9402C56.3009 22.5657 58.0698 23.3784 60.269 23.3784C61.8467 23.3784 63.1853 22.9481 64.2849 22.0876C65.3845 21.227 66.0538 20.0796 66.2929 18.6454C66.3407 18.5497 66.4363 18.4063 66.4363 18.4063L66.5797 18.3585C66.6753 18.3585 66.771 18.4541 66.771 18.4541C66.771 18.4541 66.8666 18.5975 66.8188 18.741C66.7231 20.1752 66.2451 21.4661 65.4801 22.6135C64.7152 23.7609 63.6634 24.6692 62.3726 25.3386C61.0817 26.0079 59.5997 26.3425 57.9742 26.3425C56.014 26.3425 54.2929 25.9123 52.8586 25.0517C51.3766 24.1912 50.2292 22.9481 49.4164 21.3704C48.6037 19.7928 48.1734 17.9282 48.1734 15.8246C48.1734 13.6255 48.6037 11.6653 49.4164 9.94419C50.2292 8.22308 51.4244 6.88444 52.9543 5.92827C54.4841 4.9721 56.2531 4.49401 58.3566 4.49401C60.0777 4.49401 61.6076 4.87648 62.8985 5.64142C64.1893 6.40635 65.1933 7.41033 65.8626 8.74897C66.5797 10.0398 66.9144 11.5697 66.9144 13.243L66.9622 13.1952Z" fill="#54C0CB"/>
<path d="M78.465 5.11552V23.9999C78.465 24.2868 78.5128 24.478 78.6084 24.6214C78.704 24.7649 78.8474 24.8605 79.0865 24.9083L80.3773 25.1473C80.6163 25.2429 80.712 25.3386 80.712 25.5298C80.712 25.7688 80.5685 25.8645 80.3295 25.8645H71.5327C71.4371 25.8645 71.3415 25.8166 71.2458 25.7688C71.1502 25.721 71.1502 25.6254 71.1502 25.5298C71.1502 25.4342 71.198 25.3864 71.2458 25.2908C71.2458 25.2908 71.3893 25.1951 71.4849 25.1473L72.8235 24.9083C73.0626 24.8605 73.206 24.7649 73.3016 24.6214C73.3972 24.478 73.445 24.2868 73.445 23.9999V7.74499C73.445 7.55376 73.3972 7.45814 73.3494 7.36252C73.3016 7.26691 73.206 7.2191 73.0148 7.2191H71.4371C71.3415 7.17129 71.2458 7.17129 71.198 7.07567C71.198 7.07567 71.1024 6.93225 71.1024 6.83663C71.1024 6.74101 71.198 6.59759 71.198 6.59759C71.198 6.59759 71.3893 6.50197 71.4849 6.45416L77.1741 4.82867C77.4132 4.73305 77.5566 4.68524 77.6522 4.68524C77.7478 4.68524 77.8434 4.63743 77.9391 4.63743C78.0825 4.63743 78.1781 4.68524 78.2737 4.78086C78.3693 4.87648 78.3693 4.9721 78.3693 5.11552H78.465ZM77.9869 9.80076L77.6044 9.37049L78.465 8.55774C80.0904 7.07567 81.5247 6.02388 82.8155 5.45018C84.1064 4.82867 85.3494 4.54182 86.4968 4.54182C88.1223 4.54182 89.4609 5.06771 90.5127 6.07169C91.5645 7.07567 92.0426 8.60555 92.0426 10.6613V23.8565C92.0426 24.1912 92.0904 24.4302 92.2338 24.6214C92.3773 24.8127 92.5685 24.9083 92.8075 24.9561L93.9549 25.1473C94.0984 25.1951 94.194 25.2908 94.194 25.2908C94.194 25.2908 94.2896 25.4342 94.2896 25.5298C94.2896 25.6254 94.194 25.7688 94.194 25.7688C94.0984 25.8166 94.0027 25.8645 93.8593 25.8645H85.0625C84.7757 25.8645 84.6323 25.7688 84.6323 25.5298C84.6323 25.3386 84.7279 25.2429 84.9669 25.1473L86.3056 24.9083C86.5924 24.8605 86.7836 24.717 86.8793 24.5258C86.9749 24.3346 87.0227 24.0955 87.0227 23.8087V11.2828C87.0227 9.80076 86.688 8.74897 86.0187 8.07965C85.3494 7.41033 84.441 7.02786 83.2936 7.02786C82.5765 7.02786 81.8116 7.17129 81.0466 7.50595C80.2817 7.84061 79.5645 8.3187 78.7996 9.03583L77.9869 9.75295V9.80076Z" fill="#54C0CB"/>
<path d="M99.5868 6.16731L97.6745 5.78484C97.531 5.73703 97.4354 5.68922 97.3876 5.59361C97.3876 5.59361 97.3398 5.45018 97.3398 5.35456C97.3398 5.25895 97.3876 5.16333 97.4354 5.06771C97.531 5.0199 97.6266 4.9721 97.7223 4.9721H99.6824C99.8258 4.9721 99.9693 4.92429 100.065 4.87648C100.161 4.82867 100.256 4.68524 100.352 4.54182L103.794 0.430278C103.89 0.286852 104.033 0.191236 104.176 0.0956188C104.32 1.61678e-06 104.415 0 104.559 0C104.702 0 104.798 0.0478096 104.894 0.143427C104.989 0.239044 105.037 0.382471 105.037 0.525896V20.4621C105.037 21.6573 105.276 22.5179 105.706 23.1394C106.184 23.7131 106.806 23.9999 107.619 23.9999C107.953 23.9999 108.288 23.9521 108.575 23.8565C108.862 23.7609 109.101 23.6175 109.34 23.4262C109.579 23.235 109.77 22.9959 109.961 22.7091C110.152 22.4222 110.296 22.1354 110.439 21.7529L110.631 21.7051C110.726 21.7529 110.726 21.8485 110.726 21.992C110.535 22.9003 110.2 23.6653 109.77 24.3346C109.34 24.9561 108.766 25.4342 108.049 25.7688C107.38 26.1035 106.519 26.2469 105.563 26.2469C103.842 26.2469 102.503 25.8166 101.547 24.9561C100.591 24.0955 100.113 22.8047 100.113 21.0358V6.78882C100.113 6.59759 100.065 6.45416 100.017 6.31074C99.9693 6.21512 99.8258 6.1195 99.6346 6.07169L99.5868 6.16731ZM103.22 5.92827L103.316 5.0199H110.2C110.344 5.0199 110.535 5.11552 110.535 5.11552C110.631 5.16333 110.631 5.25895 110.631 5.40237C110.631 5.5458 110.535 5.68922 110.392 5.83265C110.248 5.92827 110.009 5.97608 109.674 5.97608H103.172L103.22 5.92827Z" fill="#54C0CB"/>
<path d="M125.007 4.54182C127.062 4.54182 128.879 5.0199 130.505 5.92827C132.082 6.83663 133.373 8.17527 134.282 9.80076C135.19 11.4741 135.668 13.3386 135.668 15.49C135.668 17.5936 135.19 19.4581 134.282 21.1314C133.373 22.7569 132.082 24.0477 130.457 24.9561C128.831 25.8645 126.967 26.3425 124.863 26.3425C122.807 26.3425 120.991 25.8645 119.365 24.9561C117.788 24.0477 116.545 22.7569 115.636 21.1314C114.728 19.5059 114.298 17.5936 114.298 15.49C114.298 13.3386 114.776 11.4741 115.684 9.84857C116.592 8.22308 117.883 6.88444 119.509 5.97607C121.134 5.0199 122.999 4.54182 125.102 4.54182H125.007ZM126.25 25.482C127.301 25.3864 128.21 24.8605 128.879 23.9999C129.596 23.1394 130.074 21.9441 130.313 20.3665C130.552 18.8366 130.552 16.9721 130.313 14.7729C130.027 12.5737 129.596 10.7569 128.975 9.32268C128.353 7.88842 127.588 6.83663 126.68 6.16731C125.772 5.49799 124.768 5.25895 123.62 5.35456C122.521 5.49799 121.612 5.97608 120.943 6.83663C120.226 7.69719 119.796 8.94021 119.556 10.4701C119.317 12 119.317 13.8645 119.604 16.0159C119.891 18.1673 120.321 19.984 120.991 21.4183C121.612 22.8525 122.425 23.9043 123.333 24.5736C124.242 25.2429 125.246 25.5298 126.345 25.3864L126.25 25.482Z" fill="#54C0CB"/>
<path d="M147.689 5.30675C146.59 5.30675 145.681 5.5936 145.012 6.16731C144.343 6.74101 144.008 7.50595 144.008 8.46212C144.008 9.08363 144.152 9.70514 144.438 10.1832C144.725 10.7091 145.251 11.1872 145.968 11.6175C146.685 12.0478 147.642 12.478 148.885 12.8605C150.749 13.4342 152.231 14.1035 153.283 14.8207C154.335 15.5378 155.1 16.3027 155.578 17.2111C156.008 18.1195 156.247 19.1234 156.247 20.2708C156.247 22.1832 155.578 23.6653 154.287 24.7649C152.996 25.8645 151.179 26.3903 148.932 26.3903C147.976 26.3903 147.211 26.2947 146.59 26.1035C145.968 25.9123 145.49 25.721 145.156 25.5298C144.821 25.3386 144.582 25.2429 144.438 25.2429C144.295 25.2429 144.056 25.3386 143.721 25.5298C143.387 25.721 143.1 25.9123 142.765 26.1035C142.478 26.2947 142.239 26.3903 142.096 26.3903C142 26.3903 141.857 26.2947 141.857 26.2947C141.761 26.2469 141.713 26.1035 141.618 25.9123L140.327 19.8884C140.279 19.6493 140.279 19.4581 140.279 19.3147C140.327 19.1712 140.375 19.0756 140.47 19.0278C140.566 18.98 140.709 18.98 140.853 19.0278C140.996 19.0756 141.092 19.1712 141.187 19.3147C141.952 20.8924 142.765 22.0876 143.53 22.9959C144.295 23.9043 145.108 24.5736 145.968 24.9561C146.829 25.3386 147.737 25.5298 148.741 25.5298C149.984 25.5298 150.988 25.2429 151.658 24.6214C152.327 23.9999 152.662 23.1872 152.662 22.1832C152.662 21.5139 152.518 20.9402 152.183 20.4143C151.897 19.8884 151.323 19.4103 150.558 18.9322C149.793 18.5019 148.693 18.0716 147.259 17.6414C145.634 17.1633 144.295 16.5896 143.291 15.9203C142.287 15.2509 141.522 14.486 141.092 13.5776C140.614 12.6693 140.375 11.6653 140.375 10.5657C140.375 9.32268 140.662 8.22308 141.283 7.31471C141.905 6.40635 142.717 5.68922 143.769 5.16333C144.821 4.63743 146.016 4.39839 147.403 4.39839C148.311 4.39839 149.076 4.54181 149.697 4.78086C150.319 5.0199 150.845 5.25894 151.179 5.49799C151.562 5.73703 151.801 5.88046 151.897 5.88046C151.992 5.88046 152.183 5.78484 152.47 5.5458C152.757 5.30675 152.996 5.06771 153.283 4.87648C153.57 4.63743 153.761 4.54182 153.952 4.54182C154.096 4.54182 154.191 4.58962 154.287 4.68524C154.383 4.78086 154.43 4.92428 154.478 5.11552L155.53 10.4701C155.578 10.7569 155.626 10.9482 155.578 11.0916C155.53 11.235 155.482 11.3306 155.339 11.3784C155.243 11.4263 155.148 11.3784 155.052 11.3306C154.956 11.2828 154.861 11.1872 154.765 11.0438C153.666 8.94021 152.518 7.45814 151.371 6.59759C150.175 5.73703 148.98 5.30675 147.785 5.30675H147.689Z" fill="#54C0CB"/>
<path d="M25.7199 25.3486H27.0508V43.8327H25.7199V41.2942C25.2763 42.1568 24.6848 42.8469 23.8962 43.3644C23.1075 43.882 22.171 44.1531 21.0866 44.1531C20.1994 44.1531 19.3614 43.9805 18.5728 43.6602C17.7841 43.3151 17.094 42.8469 16.5026 42.2554C15.9111 41.6639 15.4428 40.9738 15.0978 40.1852C14.7527 39.3965 14.5802 38.5586 14.5802 37.6713C14.5802 36.7841 14.7527 35.9215 15.0978 35.1575C15.4428 34.3688 15.9111 33.6788 16.5026 33.0873C17.094 32.4958 17.7841 32.0275 18.5728 31.6825C19.3614 31.3375 20.1994 31.1649 21.0866 31.1649C22.171 31.1649 23.1075 31.436 23.8962 31.9536C24.6848 32.4711 25.301 33.1612 25.7199 34.0238V25.3486ZM21.0866 42.8469C22.0478 42.8469 22.8611 42.625 23.5265 42.1568C24.1919 41.6885 24.7095 41.0724 25.0792 40.2837C25.4488 39.4951 25.6214 38.6325 25.6214 37.6713C25.6214 36.7102 25.4488 35.8229 25.0792 35.0343C24.7095 34.2456 24.1919 33.6295 23.5265 33.1612C22.8611 32.693 22.0478 32.4711 21.1112 32.4711C20.1747 32.4711 19.3121 32.693 18.5235 33.1612C17.7348 33.6295 17.1187 34.2456 16.6751 35.0343C16.2068 35.8229 15.985 36.6855 15.985 37.6467C15.985 38.6078 16.2315 39.4951 16.6997 40.2837C17.168 41.0724 17.8088 41.6885 18.5728 42.1568C19.3614 42.625 20.1747 42.8469 21.0866 42.8469Z" fill="black"/>
<path d="M36.6058 44.1531C35.4721 44.1531 34.437 43.8573 33.5005 43.2658C32.564 42.6743 31.8246 41.9103 31.2824 40.9245C30.7402 39.9387 30.4445 38.8543 30.4445 37.6713C30.4445 36.7594 30.5923 35.9215 30.9374 35.1329C31.2578 34.3442 31.7014 33.6541 32.2682 33.0626C32.8351 32.4711 33.4758 32.0029 34.2398 31.6578C34.9792 31.3128 35.7925 31.1403 36.6305 31.1403C37.5177 31.1403 38.3556 31.3128 39.1196 31.6578C39.8836 32.0029 40.5244 32.4958 41.0913 33.1366C41.6335 33.7774 42.0771 34.5167 42.3482 35.3793C42.6439 36.2419 42.7672 37.1784 42.7425 38.1889H31.8492C31.9478 39.0761 32.2189 39.8648 32.6379 40.5548C33.0815 41.2449 33.6484 41.7871 34.3384 42.2061C35.0285 42.6004 35.7925 42.8222 36.6058 42.8222C37.5177 42.8222 38.331 42.5758 39.0704 42.1075C39.8097 41.6392 40.3766 40.9738 40.8202 40.1112L42.1757 40.4316C41.6828 41.516 40.9434 42.4279 39.9576 43.118C38.9718 43.808 37.8381 44.1531 36.6058 44.1531ZM31.8 37.0798H41.387C41.3377 36.2419 41.0913 35.4532 40.6477 34.7385C40.204 34.0238 39.6372 33.457 38.9225 33.038C38.2078 32.619 37.4438 32.3972 36.6058 32.3972C35.7679 32.3972 34.9792 32.5944 34.2891 33.0133C33.5991 33.4323 33.0322 33.9992 32.5886 34.7139C32.145 35.4286 31.8985 36.2172 31.8 37.0798Z" fill="black"/>
<path d="M55.0825 40.9245L56.2654 41.5653C55.6986 42.354 55.0085 42.9701 54.1459 43.4384C53.2834 43.9066 52.3468 44.1531 51.361 44.1531C50.2273 44.1531 49.1922 43.8573 48.2557 43.2658C47.3192 42.6743 46.5798 41.9103 46.0376 40.9245C45.4954 39.9387 45.1997 38.8543 45.1997 37.6713C45.1997 36.7594 45.3475 35.9215 45.6926 35.1329C46.013 34.3442 46.4566 33.6541 47.0234 33.0626C47.5903 32.4711 48.231 32.0029 48.9951 31.6578C49.7344 31.3128 50.5477 31.1403 51.3857 31.1403C52.3961 31.1403 53.308 31.3621 54.1706 31.855C55.0332 32.3233 55.7479 32.9394 56.2901 33.7281L55.1071 34.3688C54.6389 33.7527 54.072 33.2844 53.4066 32.9641C52.7412 32.6437 52.0757 32.4711 51.3857 32.4711C50.4738 32.4711 49.6605 32.7176 48.9211 33.1859C48.1818 33.6541 47.6149 34.2949 47.1959 35.0836C46.777 35.8722 46.5552 36.7348 46.5552 37.6713C46.5552 38.6079 46.777 39.4704 47.1959 40.2591C47.6396 41.0477 48.2064 41.6639 48.9458 42.1321C49.6851 42.6004 50.4984 42.8222 51.3857 42.8222C52.125 42.8222 52.8397 42.6497 53.4805 42.3047C54.1459 41.9596 54.6881 41.4914 55.1071 40.9492L55.0825 40.9245Z" fill="black"/>
<path d="M65.0466 44.1531C63.9129 44.1531 62.8778 43.8573 61.9413 43.2658C61.0048 42.6743 60.2654 41.9103 59.7232 40.9245C59.181 39.9387 58.8853 38.8543 58.8853 37.6713C58.8853 36.7594 59.0331 35.9215 59.3782 35.1329C59.6986 34.3442 60.1422 33.6541 60.709 33.0626C61.2759 32.4711 61.9166 32.0029 62.6806 31.6578C63.42 31.3128 64.2333 31.1403 65.0713 31.1403C66.2049 31.1403 67.2401 31.436 68.1766 32.0029C69.1131 32.5944 69.8525 33.3584 70.4193 34.3688C70.9861 35.3547 71.2572 36.4391 71.2572 37.6467C71.2572 38.5339 71.0847 39.3719 70.789 40.1605C70.4686 40.9492 70.025 41.6392 69.4581 42.2307C68.8913 42.8222 68.2505 43.2905 67.5111 43.6355C66.7718 43.9805 65.9585 44.1531 65.1205 44.1531H65.0466ZM65.0466 42.8222C65.9585 42.8222 66.7718 42.5758 67.5111 42.1075C68.2505 41.6392 68.8174 40.9985 69.2363 40.2098C69.6553 39.4211 69.8771 38.5832 69.8771 37.6467C69.8771 36.7102 69.6553 35.8476 69.2363 35.0589C68.8174 34.2703 68.2259 33.6541 67.5111 33.1612C66.7718 32.693 65.9585 32.4465 65.0713 32.4465C64.1594 32.4465 63.3461 32.693 62.6067 33.1612C61.8674 33.6295 61.3005 34.2703 60.8815 35.0589C60.4626 35.8476 60.2408 36.7102 60.2408 37.622C60.2408 38.5832 60.4626 39.4458 60.9062 40.2344C61.3498 41.0231 61.9413 41.6392 62.656 42.0829C63.3954 42.5511 64.184 42.7729 65.0713 42.7729L65.0466 42.8222Z" fill="black"/>
<path d="M74.5844 43.8327V31.51H75.9152V33.383C76.3588 32.7176 76.9503 32.1754 77.6651 31.7564C78.4044 31.3621 79.1931 31.1403 80.0557 31.1403C80.5239 31.1403 80.9922 31.2142 81.4358 31.3128L80.8936 32.619C80.5486 32.5204 80.2035 32.4711 79.8585 32.4711C79.1438 32.4711 78.4784 32.6437 77.8622 33.0133C77.2707 33.3584 76.7778 33.8513 76.4328 34.4428C76.0877 35.0343 75.8906 35.6997 75.8906 36.4391V43.808H74.5597L74.5844 43.8327Z" fill="black"/>
<path d="M95.3333 31.51V43.8327H94.0025L93.9532 41.2942C93.5342 42.1568 92.9427 42.8469 92.1541 43.3644C91.3901 43.882 90.4535 44.1531 89.3691 44.1531C88.4573 44.1531 87.6193 43.9805 86.8307 43.6355C86.042 43.2905 85.3519 42.8222 84.7605 42.2307C84.169 41.6392 83.7007 40.9492 83.3557 40.1605C83.0106 39.3719 82.8381 38.5339 82.8381 37.622C82.8381 36.7348 83.0106 35.8969 83.331 35.1082C83.6761 34.3195 84.1197 33.6295 84.7112 33.038C85.3027 32.4465 85.9927 31.9782 86.7567 31.6578C87.5454 31.3128 88.3587 31.1649 89.2706 31.1649C90.355 31.1649 91.3161 31.436 92.1048 31.9536C92.8934 32.4711 93.5342 33.1859 93.9778 34.0238L93.9285 31.51H95.3333ZM89.3691 42.8469C90.3303 42.8469 91.1436 42.625 91.809 42.1568C92.4745 41.6885 92.992 41.0724 93.3617 40.2837C93.7314 39.4951 93.9039 38.6325 93.9039 37.6713C93.9039 36.7102 93.7314 35.8229 93.3617 35.0343C92.992 34.2456 92.4745 33.6295 91.809 33.1612C91.1436 32.693 90.3303 32.4711 89.3938 32.4711C88.4573 32.4711 87.5947 32.693 86.806 33.1612C86.0174 33.6295 85.4012 34.2456 84.9576 35.0343C84.4894 35.8229 84.2675 36.6855 84.2675 37.6467C84.2675 38.6078 84.514 39.4951 84.9823 40.2837C85.4505 41.0724 86.0913 41.6885 86.8553 42.1568C87.644 42.625 88.4573 42.8469 89.3691 42.8469Z" fill="black"/>
<path d="M107.937 40.9245L109.12 41.5653C108.553 42.354 107.863 42.9701 107 43.4384C106.138 43.9066 105.201 44.1531 104.216 44.1531C103.082 44.1531 102.047 43.8573 101.11 43.2658C100.174 42.6743 99.4343 41.9103 98.8921 40.9245C98.3499 39.9387 98.0542 38.8543 98.0542 37.6713C98.0542 36.7594 98.202 35.9215 98.5471 35.1329C98.8675 34.3442 99.3111 33.6541 99.8779 33.0626C100.445 32.4711 101.086 32.0029 101.85 31.6578C102.589 31.3128 103.402 31.1403 104.24 31.1403C105.251 31.1403 106.163 31.3621 107.025 31.855C107.888 32.3233 108.602 32.9394 109.145 33.7281L107.962 34.3688C107.493 33.7527 106.927 33.2844 106.261 32.9641C105.596 32.6437 104.93 32.4711 104.24 32.4711C103.328 32.4711 102.515 32.7176 101.776 33.1859C101.036 33.6541 100.469 34.2949 100.05 35.0836C99.6315 35.8722 99.4097 36.7348 99.4097 37.6713C99.4097 38.6079 99.6315 39.4704 100.05 40.2591C100.494 41.0477 101.061 41.6639 101.8 42.1321C102.54 42.6004 103.353 42.8222 104.24 42.8222C104.98 42.8222 105.694 42.6497 106.335 42.3047C107 41.9596 107.543 41.4914 107.962 40.9492L107.937 40.9245Z" fill="black"/>
<path d="M112.454 31.51H113.785V43.8327H112.454V31.51ZM113.145 29.1687C112.923 29.1687 112.726 29.0947 112.553 28.9469C112.405 28.799 112.307 28.6018 112.307 28.38C112.307 28.1582 112.381 27.961 112.553 27.8132C112.701 27.6653 112.898 27.5914 113.145 27.5914C113.366 27.5914 113.564 27.6653 113.711 27.8132C113.884 27.961 113.958 28.1582 113.958 28.38C113.958 28.6018 113.884 28.799 113.736 28.9469C113.588 29.0947 113.391 29.1687 113.169 29.1687H113.145Z" fill="black"/>
<path d="M123.323 44.1531C122.189 44.1531 121.154 43.8573 120.218 43.2658C119.281 42.6743 118.542 41.9103 118 40.9245C117.457 39.9387 117.162 38.8543 117.162 37.6713C117.162 36.7594 117.31 35.9215 117.655 35.1329C117.975 34.3442 118.419 33.6541 118.985 33.0626C119.552 32.4711 120.193 32.0029 120.957 31.6578C121.696 31.3128 122.51 31.1403 123.348 31.1403C124.481 31.1403 125.517 31.436 126.453 32.0029C127.39 32.5944 128.129 33.3584 128.696 34.3688C129.263 35.3547 129.534 36.4391 129.534 37.6467C129.534 38.5339 129.361 39.3719 129.065 40.1605C128.745 40.9492 128.301 41.6392 127.735 42.2307C127.168 42.8222 126.527 43.2905 125.788 43.6355C125.048 43.9805 124.235 44.1531 123.397 44.1531H123.323ZM123.323 42.8222C124.235 42.8222 125.048 42.5758 125.788 42.1075C126.527 41.6392 127.094 40.9985 127.513 40.2098C127.932 39.4211 128.154 38.5832 128.154 37.6467C128.154 36.7102 127.932 35.8476 127.513 35.0589C127.094 34.2703 126.502 33.6541 125.788 33.1612C125.048 32.693 124.235 32.4465 123.348 32.4465C122.436 32.4465 121.623 32.693 120.883 33.1612C120.144 33.6295 119.577 34.2703 119.158 35.0589C118.739 35.8476 118.517 36.7102 118.517 37.622C118.517 38.5832 118.739 39.4458 119.183 40.2344C119.626 41.0231 120.218 41.6392 120.932 42.0829C121.672 42.5511 122.46 42.7729 123.348 42.7729L123.323 42.8222Z" fill="black"/>
<path d="M143.434 36.2665V43.8327H142.103V36.4637C142.103 35.7243 141.93 35.0589 141.561 34.4674C141.216 33.8759 140.723 33.383 140.131 33.038C139.54 32.693 138.874 32.4958 138.135 32.4958C137.42 32.4958 136.755 32.6683 136.139 33.038C135.547 33.383 135.054 33.8759 134.709 34.4674C134.364 35.0589 134.167 35.7243 134.167 36.4637V43.8327H132.836V31.51H134.167V33.383C134.611 32.7176 135.202 32.1754 135.917 31.7564C136.656 31.3621 137.445 31.1403 138.307 31.1403C139.244 31.1403 140.107 31.3621 140.871 31.8304C141.635 32.2986 142.251 32.8901 142.719 33.6788C143.187 34.4428 143.409 35.3054 143.409 36.2419L143.434 36.2665Z" fill="black"/>
<path d="M152.311 44.1531C151.177 44.1531 150.142 43.8573 149.206 43.2658C148.269 42.6743 147.53 41.9103 146.988 40.9245C146.445 39.9387 146.15 38.8543 146.15 37.6713C146.15 36.7594 146.298 35.9215 146.643 35.1329C146.963 34.3442 147.407 33.6541 147.973 33.0626C148.54 32.4711 149.181 32.0029 149.945 31.6578C150.684 31.3128 151.498 31.1403 152.336 31.1403C153.223 31.1403 154.061 31.3128 154.825 31.6578C155.589 32.0029 156.23 32.4958 156.796 33.1366C157.339 33.7774 157.782 34.5167 158.053 35.3793C158.349 36.2419 158.472 37.1784 158.448 38.1889H147.554C147.653 39.0761 147.924 39.8648 148.343 40.5548C148.787 41.2449 149.354 41.7871 150.044 42.2061C150.734 42.6004 151.498 42.8222 152.311 42.8222C153.223 42.8222 154.036 42.5758 154.776 42.1075C155.515 41.6392 156.082 40.9738 156.525 40.1112L157.881 40.4316C157.388 41.516 156.649 42.4279 155.663 43.118C154.677 43.808 153.543 44.1531 152.311 44.1531ZM147.505 37.0798H157.092C157.043 36.2419 156.796 35.4532 156.353 34.7385C155.909 34.0238 155.342 33.457 154.628 33.038C153.913 32.619 153.149 32.3972 152.311 32.3972C151.473 32.3972 150.684 32.5944 149.994 33.0133C149.304 33.4323 148.737 33.9992 148.294 34.7139C147.85 35.4286 147.604 36.2172 147.505 37.0798Z" fill="black"/>
<path d="M165.711 44.0791C165.021 44.0791 164.355 43.9559 163.69 43.7094C163.049 43.4876 162.482 43.1673 161.989 42.7729C161.496 42.3786 161.176 41.935 160.979 41.4421L162.137 40.9492C162.285 41.3188 162.556 41.6392 162.95 41.935C163.345 42.2307 163.788 42.4525 164.306 42.6251C164.823 42.7976 165.316 42.8715 165.785 42.8715C166.352 42.8715 166.869 42.7729 167.337 42.5758C167.83 42.3786 168.225 42.1075 168.52 41.7625C168.816 41.4174 168.964 41.0231 168.964 40.5548C168.964 40.0619 168.791 39.6676 168.471 39.3965C168.151 39.1008 167.732 38.879 167.239 38.7064C166.746 38.5339 166.228 38.3614 165.711 38.2135C164.799 37.9424 164.035 37.6713 163.369 37.4002C162.704 37.1291 162.186 36.7594 161.841 36.3405C161.472 35.9215 161.299 35.3547 161.299 34.6646C161.299 33.9252 161.521 33.3091 161.94 32.7669C162.359 32.2247 162.901 31.8304 163.591 31.5346C164.281 31.2389 164.996 31.091 165.785 31.091C166.795 31.091 167.707 31.3128 168.545 31.7564C169.358 32.2 169.95 32.7915 170.295 33.5063L169.21 34.147C169.062 33.7774 168.791 33.457 168.446 33.1859C168.101 32.9148 167.682 32.693 167.239 32.5451C166.795 32.3972 166.327 32.3233 165.883 32.3233C165.316 32.3233 164.774 32.3972 164.281 32.5944C163.788 32.7669 163.394 33.038 163.074 33.383C162.778 33.7281 162.63 34.147 162.63 34.6399C162.63 35.1329 162.778 35.5272 163.049 35.7736C163.32 36.0447 163.714 36.2419 164.207 36.4144C164.7 36.5869 165.292 36.7594 165.957 36.9813C166.721 37.2277 167.436 37.4988 168.077 37.7699C168.742 38.0657 169.284 38.4353 169.679 38.8543C170.098 39.2979 170.295 39.8648 170.295 40.5302C170.295 41.2449 170.073 41.8857 169.654 42.4279C169.21 42.9701 168.668 43.3644 167.953 43.6602C167.263 43.9559 166.524 44.0791 165.735 44.0791H165.711Z" fill="black"/>
<path fill-rule="evenodd" clip-rule="evenodd" d="M0.16254 30.6507H9.45654V44.0317L0.16254 30.6507Z" fill="#54C0CB"/>
</svg>
